<?xml version="1.0" standalone="no"?>
<!DOCTYPE svg PUBLIC "-//W3C//DTD SVG 20010904//EN"
 "http://www.w3.org/TR/2001/REC-SVG-20010904/DTD/svg10.dtd">
<svg version="1.0" xmlns="http://www.w3.org/2000/svg"
 width="223.000000pt" height="125.000000pt" viewBox="0 0 223.000000 125.000000"
 preserveAspectRatio="xMidYMid meet">
<metadata>
Created by potrace 1.16, written by Peter Selinger 2001-2019
</metadata>
<g transform="translate(0.000000,125.000000) scale(0.100000,-0.100000)"
fill="#000000" stroke="none">
<path d="M0 625 l0 -625 1115 0 1115 0 0 625 0 625 -1115 0 -1115 0 0 -625z
m995 501 c11 -13 26 -21 33 -19 10 4 8 11 -9 29 l-22 24 31 0 c29 0 62 -21 62
-41 0 -5 24 -9 53 -9 79 0 272 -19 367 -36 320 -58 564 -185 641 -335 46 -90
24 -202 -57 -283 -58 -58 -84 -65 -33 -8 60 67 83 115 83 177 0 212 -375 394
-919 445 -134 12 -138 12 -130 1 8 -15 -45 -51 -74 -51 l-26 1 33 29 32 30
-29 0 c-20 0 -30 -6 -34 -20 -5 -21 -52 -44 -69 -34 -5 4 0 16 13 30 19 21 20
24 5 24 -9 0 -27 -11 -39 -25 -12 -13 -34 -27 -49 -29 -25 -4 -27 -3 -18 14 6
10 15 22 20 25 18 11 11 35 -17 60 l-28 24 33 1 c22 0 41 -8 58 -25 14 -14 33
-25 42 -25 13 0 11 6 -11 25 -15 14 -27 28 -27 32 0 14 67 -10 85 -31z m300
-126 c414 -34 732 -170 775 -332 50 -184 -238 -353 -695 -409 -142 -17 -456
-14 -590 5 -296 43 -509 126 -610 237 -42 47 -55 77 -55 127 0 203 417 372
941 380 58 1 164 -3 234 -8z m-1147 -195 c-122 -127 -119 -250 10 -365 137
-122 389 -211 725 -255 154 -20 227 -20 227 0 0 18 57 48 77 41 13 -5 11 -11
-11 -29 -14 -12 -26 -26 -26 -30 0 -15 36 0 62 26 16 16 38 27 54 27 l27 0
-21 -23 c-26 -27 -28 -37 -7 -37 8 0 15 5 15 10 0 20 40 50 67 50 l26 0 -21
-23 c-25 -27 -23 -54 7 -79 l23 -18 -31 0 c-21 0 -41 9 -57 25 -14 14 -29 25
-34 25 -18 0 -10 -18 16 -39 l27 -21 -36 0 c-34 0 -67 20 -67 41 0 5 -12 9
-27 9 l-28 -1 28 -20 c30 -23 35 -39 12 -39 -25 0 -75 29 -75 44 0 10 -35 14
-147 19 -282 13 -495 65 -698 170 -98 51 -194 143 -220 210 -39 102 -1 222 93
294 59 45 62 41 10 -12z"/>
<path d="M1018 725 l-48 -35 0 -91 0 -90 38 3 37 3 5 80 c4 66 8 80 23 83 15
3 17 -6 17 -82 l0 -86 45 0 45 0 0 86 c0 76 2 85 18 82 14 -3 18 -16 20 -78 3
-79 9 -90 55 -90 l27 0 0 89 0 89 -50 36 -51 37 -26 -21 c-32 -25 -55 -25 -78
0 -10 11 -21 20 -24 20 -3 0 -27 -16 -53 -35z"/>
<path d="M1388 725 l-47 -34 -3 -91 -3 -90 43 0 c42 0 42 0 42 36 0 31 3 35
23 32 17 -2 22 -10 22 -33 1 -28 3 -30 43 -33 l42 -3 0 76 c0 42 -5 85 -10 95
-9 16 -91 81 -102 80 -2 0 -24 -16 -50 -35z"/>
<path d="M1580 630 l0 -120 39 0 39 0 -6 45 c-3 30 -1 45 7 45 6 0 26 -20 43
-45 22 -31 39 -45 54 -45 22 0 23 3 26 120 l3 120 -37 0 c-38 0 -38 0 -38 -42
l-1 -43 -37 43 c-27 31 -45 42 -64 42 l-28 0 0 -120z"/>
<path d="M1820 630 l0 -120 40 0 40 0 0 120 0 120 -40 0 -40 0 0 -120z"/>
<path d="M280 625 l0 -115 40 0 40 0 0 46 c0 38 3 45 18 42 12 -2 18 -15 20
-46 3 -42 3 -42 43 -42 l39 0 0 44 c0 26 -6 48 -15 56 -12 10 -12 15 0 33 19
30 8 72 -21 86 -14 6 -56 11 -94 11 l-70 0 0 -115z"/>
<path d="M558 707 l-43 -33 -3 -82 -3 -82 41 0 c38 0 40 2 40 30 0 23 5 30 19
30 15 0 21 -8 23 -32 3 -30 6 -33 38 -33 l35 0 0 84 0 85 -43 33 c-24 18 -47
33 -52 33 -5 0 -28 -15 -52 -33z"/>
<path d="M855 731 c-3 -6 -5 -43 -4 -84 2 -40 0 -78 -4 -84 -10 -15 -37 -5
-37 13 0 9 -12 14 -36 14 -29 0 -35 -3 -30 -16 3 -9 6 -19 6 -24 0 -25 34 -40
90 -40 83 0 90 10 90 121 0 49 1 92 3 97 3 11 -70 14 -78 3z"/>
</g>
</svg>
